G04 EAGLE Gerber RS-274X export*
G75*
%MOMM*%
%FSLAX34Y34*%
%LPD*%
%IN*%
%IPPOS*%
%AMOC8*
5,1,8,0,0,1.08239X$1,22.5*%
G01*
%ADD10C,0.254000*%


D10*
X0Y0D02*
X774500Y0D01*
X774500Y950470D01*
X0Y950470D01*
X0Y0D01*
X402590Y680720D02*
X490220Y680720D01*
X524510Y646430D01*
X524510Y524510D01*
X525780Y523240D01*
X548640Y523240D01*
X548640Y657860D01*
X496570Y709930D01*
X402590Y709930D01*
X402590Y680720D01*
X149860Y293370D02*
X226060Y212090D01*
X496570Y213360D01*
X547370Y265430D01*
X547370Y378460D01*
X524510Y378460D01*
X524510Y276860D01*
X485140Y234950D01*
X243840Y234950D01*
X176530Y307340D01*
X176530Y615950D01*
X241300Y680720D01*
X309880Y680720D01*
X309880Y709930D01*
X226060Y709930D01*
X149860Y633730D01*
X149860Y293370D01*
X98425Y37684D02*
X98353Y36856D01*
X98208Y36036D01*
X97993Y35233D01*
X97708Y34451D01*
X97357Y33698D01*
X96941Y32977D01*
X96464Y32296D01*
X95929Y31659D01*
X95341Y31071D01*
X94704Y30536D01*
X94023Y30059D01*
X93302Y29643D01*
X92549Y29292D01*
X91767Y29007D01*
X90964Y28792D01*
X90144Y28648D01*
X89316Y28575D01*
X88484Y28575D01*
X87656Y28648D01*
X86836Y28792D01*
X86033Y29007D01*
X85251Y29292D01*
X84498Y29643D01*
X83777Y30059D01*
X83096Y30536D01*
X82459Y31071D01*
X81871Y31659D01*
X81336Y32296D01*
X80859Y32977D01*
X80443Y33698D01*
X80092Y34451D01*
X79807Y35233D01*
X79592Y36036D01*
X79448Y36856D01*
X79375Y37684D01*
X79375Y38516D01*
X79448Y39344D01*
X79592Y40164D01*
X79807Y40967D01*
X80092Y41749D01*
X80443Y42502D01*
X80859Y43223D01*
X81336Y43904D01*
X81871Y44541D01*
X82459Y45129D01*
X83096Y45664D01*
X83777Y46141D01*
X84498Y46557D01*
X85251Y46908D01*
X86033Y47193D01*
X86836Y47408D01*
X87656Y47553D01*
X88484Y47625D01*
X89316Y47625D01*
X90144Y47553D01*
X90964Y47408D01*
X91767Y47193D01*
X92549Y46908D01*
X93302Y46557D01*
X94023Y46141D01*
X94704Y45664D01*
X95341Y45129D01*
X95929Y44541D01*
X96464Y43904D01*
X96941Y43223D01*
X97357Y42502D01*
X97708Y41749D01*
X97993Y40967D01*
X98208Y40164D01*
X98353Y39344D01*
X98425Y38516D01*
X98425Y37684D01*
X682625Y37684D02*
X682553Y36856D01*
X682408Y36036D01*
X682193Y35233D01*
X681908Y34451D01*
X681557Y33698D01*
X681141Y32977D01*
X680664Y32296D01*
X680129Y31659D01*
X679541Y31071D01*
X678904Y30536D01*
X678223Y30059D01*
X677502Y29643D01*
X676749Y29292D01*
X675967Y29007D01*
X675164Y28792D01*
X674344Y28648D01*
X673516Y28575D01*
X672684Y28575D01*
X671856Y28648D01*
X671036Y28792D01*
X670233Y29007D01*
X669451Y29292D01*
X668698Y29643D01*
X667977Y30059D01*
X667296Y30536D01*
X666659Y31071D01*
X666071Y31659D01*
X665536Y32296D01*
X665059Y32977D01*
X664643Y33698D01*
X664292Y34451D01*
X664007Y35233D01*
X663792Y36036D01*
X663648Y36856D01*
X663575Y37684D01*
X663575Y38516D01*
X663648Y39344D01*
X663792Y40164D01*
X664007Y40967D01*
X664292Y41749D01*
X664643Y42502D01*
X665059Y43223D01*
X665536Y43904D01*
X666071Y44541D01*
X666659Y45129D01*
X667296Y45664D01*
X667977Y46141D01*
X668698Y46557D01*
X669451Y46908D01*
X670233Y47193D01*
X671036Y47408D01*
X671856Y47553D01*
X672684Y47625D01*
X673516Y47625D01*
X674344Y47553D01*
X675164Y47408D01*
X675967Y47193D01*
X676749Y46908D01*
X677502Y46557D01*
X678223Y46141D01*
X678904Y45664D01*
X679541Y45129D01*
X680129Y44541D01*
X680664Y43904D01*
X681141Y43223D01*
X681557Y42502D01*
X681908Y41749D01*
X682193Y40967D01*
X682408Y40164D01*
X682553Y39344D01*
X682625Y38516D01*
X682625Y37684D01*
X682625Y812384D02*
X682553Y811556D01*
X682408Y810736D01*
X682193Y809933D01*
X681908Y809151D01*
X681557Y808398D01*
X681141Y807677D01*
X680664Y806996D01*
X680129Y806359D01*
X679541Y805771D01*
X678904Y805236D01*
X678223Y804759D01*
X677502Y804343D01*
X676749Y803992D01*
X675967Y803707D01*
X675164Y803492D01*
X674344Y803348D01*
X673516Y803275D01*
X672684Y803275D01*
X671856Y803348D01*
X671036Y803492D01*
X670233Y803707D01*
X669451Y803992D01*
X668698Y804343D01*
X667977Y804759D01*
X667296Y805236D01*
X666659Y805771D01*
X666071Y806359D01*
X665536Y806996D01*
X665059Y807677D01*
X664643Y808398D01*
X664292Y809151D01*
X664007Y809933D01*
X663792Y810736D01*
X663648Y811556D01*
X663575Y812384D01*
X663575Y813216D01*
X663648Y814044D01*
X663792Y814864D01*
X664007Y815667D01*
X664292Y816449D01*
X664643Y817202D01*
X665059Y817923D01*
X665536Y818604D01*
X666071Y819241D01*
X666659Y819829D01*
X667296Y820364D01*
X667977Y820841D01*
X668698Y821257D01*
X669451Y821608D01*
X670233Y821893D01*
X671036Y822108D01*
X671856Y822253D01*
X672684Y822325D01*
X673516Y822325D01*
X674344Y822253D01*
X675164Y822108D01*
X675967Y821893D01*
X676749Y821608D01*
X677502Y821257D01*
X678223Y820841D01*
X678904Y820364D01*
X679541Y819829D01*
X680129Y819241D01*
X680664Y818604D01*
X681141Y817923D01*
X681557Y817202D01*
X681908Y816449D01*
X682193Y815667D01*
X682408Y814864D01*
X682553Y814044D01*
X682625Y813216D01*
X682625Y812384D01*
X73025Y812384D02*
X72953Y811556D01*
X72808Y810736D01*
X72593Y809933D01*
X72308Y809151D01*
X71957Y808398D01*
X71541Y807677D01*
X71064Y806996D01*
X70529Y806359D01*
X69941Y805771D01*
X69304Y805236D01*
X68623Y804759D01*
X67902Y804343D01*
X67149Y803992D01*
X66367Y803707D01*
X65564Y803492D01*
X64744Y803348D01*
X63916Y803275D01*
X63084Y803275D01*
X62256Y803348D01*
X61436Y803492D01*
X60633Y803707D01*
X59851Y803992D01*
X59098Y804343D01*
X58377Y804759D01*
X57696Y805236D01*
X57059Y805771D01*
X56471Y806359D01*
X55936Y806996D01*
X55459Y807677D01*
X55043Y808398D01*
X54692Y809151D01*
X54407Y809933D01*
X54192Y810736D01*
X54048Y811556D01*
X53975Y812384D01*
X53975Y813216D01*
X54048Y814044D01*
X54192Y814864D01*
X54407Y815667D01*
X54692Y816449D01*
X55043Y817202D01*
X55459Y817923D01*
X55936Y818604D01*
X56471Y819241D01*
X57059Y819829D01*
X57696Y820364D01*
X58377Y820841D01*
X59098Y821257D01*
X59851Y821608D01*
X60633Y821893D01*
X61436Y822108D01*
X62256Y822253D01*
X63084Y822325D01*
X63916Y822325D01*
X64744Y822253D01*
X65564Y822108D01*
X66367Y821893D01*
X67149Y821608D01*
X67902Y821257D01*
X68623Y820841D01*
X69304Y820364D01*
X69941Y819829D01*
X70529Y819241D01*
X71064Y818604D01*
X71541Y817923D01*
X71957Y817202D01*
X72308Y816449D01*
X72593Y815667D01*
X72808Y814864D01*
X72953Y814044D01*
X73025Y813216D01*
X73025Y812384D01*
M02*
