G04 EAGLE Gerber RS-274X export*
G75*
%MOMM*%
%FSLAX34Y34*%
%LPD*%
%INSoldermask Bottom*%
%IPPOS*%
%AMOC8*
5,1,8,0,0,1.08239X$1,22.5*%
G01*
%ADD10C,2.108200*%
%ADD11C,2.082800*%
%ADD12R,1.103200X0.903200*%
%ADD13R,1.009600X0.457200*%
%ADD14R,1.803400X2.590800*%
%ADD15C,1.061200*%
%ADD16R,0.453200X0.903200*%
%ADD17R,1.573200X0.843200*%
%ADD18R,0.903200X1.103200*%
%ADD19R,1.603200X1.303200*%
%ADD20R,0.803200X0.553200*%
%ADD21R,2.006200X1.803200*%
%ADD22C,2.870200*%
%ADD23C,1.524000*%
%ADD24C,0.959600*%
%ADD25C,1.009600*%
%ADD26C,1.059600*%
%ADD27C,1.109600*%
%ADD28C,1.553200*%


D10*
X88900Y38100D03*
X673100Y38100D03*
X673100Y812800D03*
X63500Y812800D03*
D11*
X25400Y152400D03*
X50800Y152400D03*
X76200Y152400D03*
X101600Y152400D03*
X101600Y241300D03*
X76200Y241300D03*
X50800Y241300D03*
X25400Y241300D03*
D12*
X400050Y357990D03*
X400050Y370990D03*
X388620Y466240D03*
X388620Y453240D03*
X368300Y466240D03*
X368300Y453240D03*
D13*
X385096Y416306D03*
X385096Y409702D03*
X385096Y403098D03*
X385096Y396494D03*
X354044Y396494D03*
X354044Y403098D03*
X354044Y409702D03*
X354044Y416306D03*
D14*
X369570Y406400D03*
D11*
X30480Y76200D03*
X55880Y76200D03*
D15*
X673100Y481330D03*
X673100Y471170D03*
X673100Y461010D03*
X661670Y469900D03*
X661670Y459740D03*
X661670Y481330D03*
X651510Y481330D03*
X651510Y469900D03*
X651510Y459740D03*
D16*
X372110Y320540D03*
X376610Y320540D03*
X381110Y320540D03*
X385610Y320540D03*
X372110Y301040D03*
X376610Y301040D03*
X381110Y301040D03*
X385610Y301040D03*
D17*
X379110Y311040D03*
D12*
X381000Y362100D03*
X381000Y349100D03*
X359410Y362100D03*
X359410Y349100D03*
X354330Y316380D03*
X354330Y303380D03*
X400050Y331620D03*
X400050Y318620D03*
X309880Y417980D03*
X309880Y404980D03*
X330200Y405280D03*
X330200Y392280D03*
D18*
X343050Y438150D03*
X330050Y438150D03*
D19*
X309880Y356710D03*
X309880Y336710D03*
D12*
X334010Y303380D03*
X334010Y316380D03*
X406400Y409090D03*
X406400Y396090D03*
D20*
X330200Y356310D03*
X330200Y349810D03*
X344170Y346000D03*
X344170Y352500D03*
D21*
X508000Y448060D03*
X508000Y476500D03*
D10*
X501650Y894715D03*
D22*
X476151Y920214D03*
X527149Y920214D03*
X527149Y869216D03*
X476151Y869216D03*
D10*
X282363Y789940D03*
D22*
X256864Y815439D03*
X307862Y815439D03*
X307862Y764441D03*
X256864Y764441D03*
D10*
X394335Y894715D03*
D22*
X368836Y920214D03*
X419834Y920214D03*
X419834Y869216D03*
X368836Y869216D03*
D10*
X404707Y789940D03*
D22*
X379208Y815439D03*
X430206Y815439D03*
X430206Y764441D03*
X379208Y764441D03*
D11*
X742950Y36830D03*
X742950Y62230D03*
X742950Y87630D03*
X742950Y113030D03*
X742950Y138430D03*
X742950Y163830D03*
X742950Y189230D03*
D23*
X286004Y596900D02*
X272796Y596900D01*
X272796Y571500D02*
X286004Y571500D01*
X286004Y444500D02*
X272796Y444500D01*
X272796Y419100D02*
X286004Y419100D01*
X286004Y546100D02*
X272796Y546100D01*
X272796Y520700D02*
X286004Y520700D01*
X286004Y469900D02*
X272796Y469900D01*
X272796Y495300D02*
X286004Y495300D01*
X286004Y393700D02*
X272796Y393700D01*
X272796Y368300D02*
X286004Y368300D01*
X286004Y342900D02*
X272796Y342900D01*
X272796Y317500D02*
X286004Y317500D01*
X425196Y317500D02*
X438404Y317500D01*
X438404Y342900D02*
X425196Y342900D01*
X425196Y368300D02*
X438404Y368300D01*
X438404Y393700D02*
X425196Y393700D01*
X425196Y419100D02*
X438404Y419100D01*
X438404Y444500D02*
X425196Y444500D01*
X425196Y469900D02*
X438404Y469900D01*
X438404Y495300D02*
X425196Y495300D01*
X425196Y520700D02*
X438404Y520700D01*
X438404Y546100D02*
X425196Y546100D01*
X425196Y571500D02*
X438404Y571500D01*
X438404Y596900D02*
X425196Y596900D01*
D10*
X160020Y789940D03*
D22*
X134521Y815439D03*
X185519Y815439D03*
X185519Y764441D03*
X134521Y764441D03*
D10*
X72390Y894715D03*
D22*
X46891Y920214D03*
X97889Y920214D03*
X97889Y869216D03*
X46891Y869216D03*
D10*
X287020Y894715D03*
D22*
X261521Y920214D03*
X312519Y920214D03*
X312519Y869216D03*
X261521Y869216D03*
D10*
X608965Y894715D03*
D22*
X583466Y920214D03*
X634464Y920214D03*
X634464Y869216D03*
X583466Y869216D03*
D10*
X716280Y894715D03*
D22*
X690781Y920214D03*
X741779Y920214D03*
X741779Y869216D03*
X690781Y869216D03*
D10*
X527050Y789940D03*
D22*
X501551Y815439D03*
X552549Y815439D03*
X552549Y764441D03*
X501551Y764441D03*
D10*
X179705Y894715D03*
D22*
X154206Y920214D03*
X205204Y920214D03*
X205204Y869216D03*
X154206Y869216D03*
D24*
X661670Y518160D03*
X624840Y504190D03*
X615950Y481330D03*
X618490Y462280D03*
D25*
X488950Y548640D03*
X492760Y532130D03*
D24*
X213360Y358140D03*
X243840Y567690D03*
D25*
X133350Y440690D03*
X38100Y304800D03*
X132080Y220980D03*
X191770Y160020D03*
X38100Y180340D03*
X132080Y140970D03*
X147320Y101600D03*
X27940Y271780D03*
X168910Y30480D03*
X271780Y30480D03*
X306070Y62230D03*
X152400Y63500D03*
X93980Y86360D03*
X383540Y17780D03*
X505460Y25400D03*
X575310Y62230D03*
X600710Y63500D03*
X629920Y63500D03*
X608330Y81280D03*
X556260Y187960D03*
X261620Y166370D03*
X755650Y420370D03*
X539750Y132080D03*
X671830Y276860D03*
X641350Y256540D03*
X638810Y325120D03*
X633730Y425450D03*
X695960Y383540D03*
X720090Y426720D03*
X737870Y502920D03*
X751840Y567690D03*
X716280Y608330D03*
X651510Y642620D03*
X680720Y590550D03*
X600710Y646430D03*
X600710Y688340D03*
X546100Y692150D03*
X675640Y727710D03*
X715010Y694690D03*
X722630Y763270D03*
X624840Y792480D03*
X438150Y281940D03*
X280670Y292100D03*
X231140Y425450D03*
X420370Y269240D03*
X471170Y316230D03*
X241300Y320040D03*
X288290Y266700D03*
X214630Y323850D03*
X427990Y297180D03*
X400050Y270510D03*
X492760Y320040D03*
X76200Y779780D03*
X137160Y671830D03*
X133350Y552450D03*
X130810Y485140D03*
X31750Y605790D03*
X24130Y504190D03*
X24130Y347980D03*
X129540Y402590D03*
X655320Y544830D03*
X635000Y387350D03*
X69850Y543560D03*
X642620Y572770D03*
X642620Y608330D03*
X601980Y618490D03*
X610870Y591820D03*
X209550Y604520D03*
X292100Y664210D03*
X421640Y643890D03*
D26*
X461010Y467360D03*
D25*
X487680Y431800D03*
X532130Y500380D03*
X558800Y438150D03*
X565150Y621030D03*
X565150Y581660D03*
X563880Y544830D03*
X571500Y406400D03*
X501650Y605790D03*
X474980Y664210D03*
X662940Y63500D03*
X377190Y81280D03*
X195580Y554990D03*
X195580Y510540D03*
X231140Y455930D03*
X361950Y547370D03*
X337820Y471170D03*
X336550Y490220D03*
X393700Y500380D03*
X381000Y435610D03*
X403860Y443230D03*
X382270Y378460D03*
X345440Y379730D03*
X341630Y332740D03*
X370840Y347980D03*
X313690Y298450D03*
X255270Y336550D03*
X457200Y344170D03*
X402590Y618490D03*
X334010Y422910D03*
X353060Y553720D03*
X405130Y571500D03*
X403860Y594360D03*
X246380Y556260D03*
X250190Y590550D03*
X246380Y534670D03*
X232410Y491490D03*
X353060Y471170D03*
X353060Y496570D03*
X309880Y655320D03*
X533400Y181610D03*
X621030Y307340D03*
X656590Y340360D03*
X367030Y171450D03*
X519430Y433070D03*
X645160Y116840D03*
X665480Y116840D03*
X687070Y116840D03*
X631190Y81280D03*
X660400Y81280D03*
X669290Y147320D03*
X641350Y168910D03*
X708660Y148590D03*
X671830Y180340D03*
X694690Y179070D03*
X716280Y179070D03*
X669290Y198120D03*
X693420Y204470D03*
X718820Y204470D03*
X731520Y306070D03*
X693420Y364490D03*
X646430Y279400D03*
X694690Y321310D03*
X675640Y304800D03*
X604520Y290830D03*
X603250Y266700D03*
X599440Y246380D03*
X579120Y212090D03*
X629920Y220980D03*
X671830Y241300D03*
X721360Y347980D03*
X737870Y396240D03*
X737870Y439420D03*
X613410Y350520D03*
X481330Y471170D03*
X506730Y106680D03*
D26*
X520700Y88900D03*
X368300Y152400D03*
D10*
X596900Y38100D03*
D24*
X457200Y63500D03*
D25*
X259080Y111760D03*
D10*
X241300Y88900D03*
D24*
X444500Y67310D03*
X299720Y104140D03*
D26*
X508000Y426720D03*
D24*
X39370Y386080D03*
X411920Y145226D03*
D10*
X163830Y187960D03*
D24*
X71120Y358140D03*
X422910Y146050D03*
D10*
X95250Y360680D03*
D24*
X626110Y148590D03*
X721360Y494030D03*
X593090Y146050D03*
X708660Y501650D03*
X581660Y166370D03*
X692150Y510540D03*
X462280Y81280D03*
X612140Y160020D03*
X723900Y506730D03*
X440690Y154940D03*
X707390Y513080D03*
X426720Y156210D03*
X621030Y193040D03*
X709930Y461010D03*
D25*
X373380Y104140D03*
X499110Y45720D03*
X85090Y708660D03*
X78740Y529590D03*
D24*
X106680Y680720D03*
X114300Y457200D03*
X100330Y638810D03*
X105410Y403860D03*
X48678Y520700D03*
X88900Y431800D03*
D26*
X576580Y438150D03*
X584200Y546100D03*
X482600Y595630D03*
X685800Y546100D03*
D24*
X365760Y290830D03*
X298450Y326390D03*
D27*
X457200Y558800D03*
X382270Y535940D03*
D10*
X744220Y618490D03*
D28*
X405130Y463550D03*
D24*
X77470Y383540D03*
X54610Y383540D03*
D10*
X368300Y52070D03*
D24*
X261620Y379730D03*
X302260Y372110D03*
X302260Y391160D03*
X309880Y440690D03*
X312420Y382270D03*
X323850Y452120D03*
X383540Y289560D03*
X414047Y350040D03*
M02*
