G04 EAGLE Gerber RS-274X export*
G75*
%MOMM*%
%FSLAX34Y34*%
%LPD*%
%INSolderpaste Bottom*%
%IPPOS*%
%AMOC8*
5,1,8,0,0,1.08239X$1,22.5*%
G01*
%ADD10R,0.900000X0.700000*%
%ADD11R,0.806400X0.254000*%
%ADD12R,0.250000X0.700000*%
%ADD13R,1.370000X0.640000*%
%ADD14R,0.700000X0.900000*%
%ADD15R,1.400000X1.100000*%
%ADD16R,0.600000X0.350000*%
%ADD17R,1.803000X1.600000*%

G36*
X377573Y394337D02*
X377573Y394337D01*
X377575Y394336D01*
X377618Y394356D01*
X377662Y394374D01*
X377662Y394376D01*
X377664Y394377D01*
X377697Y394462D01*
X377697Y418338D01*
X377696Y418340D01*
X377697Y418342D01*
X377677Y418385D01*
X377659Y418429D01*
X377657Y418429D01*
X377656Y418431D01*
X377571Y418464D01*
X361569Y418464D01*
X361567Y418463D01*
X361565Y418464D01*
X361522Y418444D01*
X361478Y418426D01*
X361478Y418424D01*
X361476Y418423D01*
X361443Y418338D01*
X361443Y394462D01*
X361444Y394460D01*
X361443Y394458D01*
X361463Y394415D01*
X361481Y394371D01*
X361483Y394371D01*
X361484Y394369D01*
X361569Y394336D01*
X377571Y394336D01*
X377573Y394337D01*
G37*
D10*
X400050Y357990D03*
X400050Y370990D03*
X388620Y466240D03*
X388620Y453240D03*
X368300Y466240D03*
X368300Y453240D03*
D11*
X385096Y416306D03*
X385096Y409702D03*
X385096Y403098D03*
X385096Y396494D03*
X354044Y396494D03*
X354044Y403098D03*
X354044Y409702D03*
X354044Y416306D03*
D12*
X372110Y320540D03*
X376610Y320540D03*
X381110Y320540D03*
X385610Y320540D03*
X372110Y301040D03*
X376610Y301040D03*
X381110Y301040D03*
X385610Y301040D03*
D13*
X379110Y311040D03*
D10*
X381000Y362100D03*
X381000Y349100D03*
X359410Y362100D03*
X359410Y349100D03*
X354330Y316380D03*
X354330Y303380D03*
X400050Y331620D03*
X400050Y318620D03*
X309880Y417980D03*
X309880Y404980D03*
X330200Y405280D03*
X330200Y392280D03*
D14*
X343050Y438150D03*
X330050Y438150D03*
D15*
X309880Y356710D03*
X309880Y336710D03*
D10*
X334010Y303380D03*
X334010Y316380D03*
X406400Y409090D03*
X406400Y396090D03*
D16*
X330200Y356310D03*
X330200Y349810D03*
X344170Y346000D03*
X344170Y352500D03*
D17*
X508000Y448060D03*
X508000Y476500D03*
M02*
