M48
;GenerationSoftware,Autodesk,EAGLE,9.3.0*%
;CreationDate,2019-06-07T22:28:09Z*%
FMAT,2
ICI,OFF
METRIC,TZ,000.000
T11C0.350
T10C0.400
T9C0.450
T8C0.500
T7C0.813
T6C0.900
T5C1.000
T4C1.016
T3C1.270
T2C1.778
T1C1.905
%
G90
M71
T1
X67310Y81280
X6350Y81280
X8890Y3810
X67310Y3810
T2
X4689Y86922
X69078Y86922
X26152Y86922
X31252Y86922
X31252Y92021
X26152Y92021
X55255Y81544
X43021Y81544
X9789Y86922
X9789Y92021
X55255Y76444
X4689Y92021
X50155Y76444
X13452Y76444
X15421Y92021
X18552Y76444
X18552Y81544
X13452Y81544
X36884Y92021
X41983Y92021
X41983Y86922
X36884Y86922
X20520Y92021
X37921Y81544
X20520Y86922
X50155Y81544
X43021Y76444
X37921Y76444
X47615Y92021
X52715Y92021
X52715Y86922
X47615Y86922
X15421Y86922
X25686Y81544
X30786Y81544
X30786Y76444
X25686Y76444
X58347Y92021
X63446Y92021
X63446Y86922
X58347Y86922
X69078Y92021
X74178Y92021
X74178Y86922
T3
X60896Y89471
X28702Y89471
X28236Y78994
X7239Y89471
X71628Y89471
X40471Y78994
X16002Y78994
X17971Y89471
X50165Y89471
X52705Y78994
X39434Y89471
T4
X5080Y24130
X2540Y15240
X5080Y15240
X7620Y15240
X10160Y15240
X10160Y24130
X7620Y24130
X2540Y24130
X3048Y7620
X5588Y7620
X74295Y3683
X74295Y6223
X74295Y8763
X74295Y11303
X74295Y13843
X74295Y16383
X74295Y18923
T5
X36830Y5207
X16383Y18796
X59690Y3810
X24130Y8890
X74422Y61849
X9525Y36068
T6
X40513Y46355
T7
X43180Y44450
X43180Y49530
X43180Y52070
X43180Y54610
X43180Y57150
X43180Y59690
X27940Y34290
X27940Y31750
X43180Y31750
X43180Y34290
X43180Y36830
X43180Y39370
X43180Y41910
X43180Y46990
X27940Y59690
X27940Y57150
X27940Y44450
X27940Y41910
X27940Y54610
X27940Y52070
X27940Y46990
X27940Y49530
X27940Y39370
X27940Y36830
T8
X38227Y53594
X45720Y55880
T9
X50800Y42672
X46101Y46736
X57658Y43815
X58420Y54610
X36830Y15240
X52070Y8890
X48260Y59563
X68580Y54610
T10
X40386Y59436
X24638Y55626
X25019Y59055
X24638Y53467
X23241Y49149
X35306Y47117
X35306Y49657
X30988Y65532
X53340Y18161
X62103Y30734
X65659Y34036
X51943Y43307
X64516Y11684
X66548Y11684
X68707Y11684
X63119Y8128
X66040Y8128
X66929Y14732
X64135Y16891
X70866Y14859
X67183Y18034
X69469Y17907
X71628Y17907
X66929Y19812
X69342Y20447
X71882Y20447
X73152Y30607
X69342Y36449
X64643Y27940
X69469Y32131
X67564Y30480
X60452Y29083
X60325Y26670
X59944Y24638
X57912Y21209
X62992Y22098
X67183Y24130
X72136Y34798
X73787Y39624
X73787Y43942
X61341Y35052
X48133Y47117
X50673Y10668
X25908Y11176
X53213Y50038
X37338Y10414
X49911Y4572
X8509Y70866
X7874Y52959
X65151Y64262
X48895Y54864
X49276Y53213
X13335Y44069
X3810Y30480
X13208Y22098
X19177Y16002
X3810Y18034
X13208Y14097
X14732Y10160
X2794Y27178
X16891Y3048
X27178Y3048
X30607Y6223
X15240Y6350
X9398Y8636
X38354Y1778
X50546Y2540
X57531Y6223
X60071Y6350
X62992Y6350
X60833Y8128
X55626Y18796
X26162Y16637
X75565Y42037
X53975Y13208
X67183Y27686
X64135Y25654
X63881Y32512
X63373Y42545
X69596Y38354
X72009Y42672
X73787Y50292
X75184Y56769
X71628Y60833
X68072Y59055
X60071Y64643
X60071Y68834
X54610Y69215
X67564Y72771
X71501Y69469
X72263Y76327
X62484Y79248
X43815Y28194
X28067Y29210
X23114Y42545
X42037Y26924
X47117Y31623
X24130Y32004
X28829Y26670
X21463Y32385
X42799Y29718
X40005Y27051
X49276Y32004
X7620Y77978
X13716Y67183
X13335Y55245
X13081Y48514
X3175Y60579
X2413Y50419
X2413Y34798
X12954Y40259
X36703Y17145
X65532Y54483
X63500Y38735
X6985Y54356
X64262Y57277
X64262Y60833
X60198Y61849
X61087Y59182
X20955Y60452
X29210Y66421
X42164Y64389
X48768Y43180
X55880Y43815
X56515Y62103
X56515Y58166
X56388Y54483
X57150Y40640
X50165Y60579
X47498Y66421
X66294Y6350
X37719Y8128
X19558Y55499
X19558Y51054
X23114Y45593
X36195Y54737
X33782Y47117
X33655Y49022
X39370Y50038
X38100Y43561
X40386Y44323
X38227Y37846
X34544Y37973
X34163Y33274
X37084Y34798
X31369Y29845
X25527Y33655
X45720Y34417
X40259Y61849
X33401Y42291
X35306Y55372
X40513Y57150
T11
X72136Y49403
X59309Y14605
X70866Y50165
X58166Y16637
X69215Y51054
X46228Y8128
X61214Y16002
X72390Y50673
X44069Y15494
X70739Y51308
X42672Y15621
X62103Y19304
X70993Y46101
X67310Y48133
X67310Y47117
X67310Y46101
X66167Y46990
X66167Y45974
X66167Y48133
X65151Y48133
X65151Y46990
X65151Y45974
X44450Y6731
X3937Y38608
X41192Y14523
X45720Y6350
X10668Y68072
X11430Y45720
X10033Y63881
X10541Y40386
X4868Y52070
X8890Y43180
X24384Y56769
X21336Y35814
X61849Y46228
X61595Y48133
X36576Y29083
X29845Y32639
X62484Y50419
X7112Y35814
X29972Y10414
X42291Y14605
X7747Y38354
X5461Y38354
X66167Y51816
X26162Y37973
X30226Y37211
X30226Y39116
X30988Y44069
X31242Y38227
X32385Y45212
X38354Y28956
X41405Y35004
X62611Y14859
M30